<svg width="140" height="70" viewBox="0 0 140 70" fill="none" xmlns="http://www.w3.org/2000/svg">
<g clip-path="url(#clip0_12_47)">
<path fill-rule="evenodd" clip-rule="evenodd" d="M21.5 22.8959C30.6747 20.3745 33.7688 21.6317 38.293 26.4645C43.4297 31.9513 47.6075 49.1298 32.4973 60.9282C30.1646 62.1279 27.3598 61.1815 24.912 60.3556C23.6395 59.9262 22.4635 59.5294 21.5005 59.4837C20.5373 59.5292 19.361 59.9261 18.0881 60.3556C15.6403 61.1815 12.8354 62.1279 10.5027 60.9282C-4.60753 49.1298 -0.429646 31.9513 4.70699 26.4645C9.23128 21.6317 12.3253 20.3745 21.5 22.8959Z" fill="#FF7E36"/>
<path d="M22.1509 18.7285C22.0621 15.7522 23.8823 9.63968 31.8733 9C31.9621 12.2428 30.1419 18.7285 22.1509 18.7285Z" fill="#FF7E36"/>
<path fill-rule="evenodd" clip-rule="evenodd" d="M8.46019 23.1486C7.84481 23.6962 7.22222 24.3186 6.56989 25.0154C1.43325 30.5023 -2.74463 47.6808 12.3656 59.4792C14.8096 60.7361 16.9482 60.2617 18.9393 59.8201C19.8803 59.6114 20.7884 59.41 21.6801 59.4021V59.4575C20.6853 59.4575 19.4413 59.8773 18.0881 60.3339C15.6403 61.1598 12.8354 62.1062 10.5027 60.9065C-4.60753 49.1081 -0.429646 31.9296 4.70699 26.4427C6.0172 25.0432 7.20746 23.9435 8.46019 23.1486Z" fill="#873101"/>
<path fill-rule="evenodd" clip-rule="evenodd" d="M23.7261 26.5295C25.1457 25.2412 27.1223 24.5956 29.1583 24.9447C31.5188 25.3494 33.3586 26.9882 34.1294 29.0856C34.1466 29.032 34.1623 28.9778 34.1767 28.923C34.7419 26.7616 32.8754 24.4016 30.0078 23.6518C27.1402 22.9019 24.3574 24.0462 23.7923 26.2076C23.7643 26.3144 23.7423 26.4218 23.7261 26.5295Z" fill="#FFB78E"/>
<path d="M54.87 58V42.38H60.282C61.954 42.38 63.3473 42.732 64.462 43.436C65.5913 44.1253 66.4347 45.064 66.992 46.252C67.5493 47.4253 67.828 48.7307 67.828 50.168C67.828 51.752 67.52 53.1307 66.904 54.304C66.288 55.4773 65.4153 56.3867 64.286 57.032C63.1567 57.6773 61.822 58 60.282 58H54.87ZM65.826 50.168C65.826 48.9947 65.606 47.9533 65.166 47.044C64.7407 46.1347 64.1173 45.4233 63.296 44.91C62.4747 44.3967 61.47 44.14 60.282 44.14H56.85V56.24H60.282C61.4847 56.24 62.4967 55.976 63.318 55.448C64.1393 54.9053 64.7627 54.1793 65.188 53.27C65.6133 52.346 65.826 51.312 65.826 50.168ZM75.832 58.22C74.9667 58.22 74.1747 58.066 73.456 57.758C72.752 57.4353 72.136 57.0027 71.608 56.46C71.0947 55.9027 70.6914 55.2647 70.398 54.546C70.1194 53.8273 69.98 53.0647 69.98 52.258C69.98 51.1727 70.2294 50.1827 70.728 49.288C71.2267 48.3933 71.916 47.6747 72.796 47.132C73.6907 46.5893 74.71 46.318 75.854 46.318C77.0127 46.318 78.0174 46.5967 78.868 47.154C79.7334 47.6967 80.4007 48.4153 80.87 49.31C81.354 50.19 81.596 51.1433 81.596 52.17C81.596 52.3167 81.5887 52.4633 81.574 52.61C81.574 52.742 81.5667 52.8447 81.552 52.918H72.026C72.0847 53.666 72.29 54.3333 72.642 54.92C73.0087 55.492 73.478 55.9467 74.05 56.284C74.622 56.6067 75.238 56.768 75.898 56.768C76.602 56.768 77.262 56.592 77.878 56.24C78.5087 55.888 78.9414 55.426 79.176 54.854L80.848 55.316C80.5987 55.8733 80.2247 56.372 79.726 56.812C79.242 57.252 78.6627 57.5967 77.988 57.846C77.328 58.0953 76.6094 58.22 75.832 58.22ZM71.96 51.576H79.792C79.7334 50.828 79.5207 50.168 79.154 49.596C78.7874 49.024 78.318 48.5767 77.746 48.254C77.174 47.9313 76.5434 47.77 75.854 47.77C75.1794 47.77 74.556 47.9313 73.984 48.254C73.412 48.5767 72.9427 49.024 72.576 49.596C72.224 50.168 72.0187 50.828 71.96 51.576ZM83.2861 54.678C83.2861 53.9447 83.4914 53.314 83.9021 52.786C84.3274 52.2433 84.9068 51.8253 85.6401 51.532C86.3734 51.2387 87.2241 51.092 88.1921 51.092C88.7054 51.092 89.2481 51.136 89.8201 51.224C90.3921 51.2973 90.8981 51.4147 91.3381 51.576V50.74C91.3381 49.86 91.0741 49.1707 90.5461 48.672C90.0181 48.1587 89.2701 47.902 88.3021 47.902C87.6714 47.902 87.0628 48.0193 86.4761 48.254C85.9041 48.474 85.2954 48.7967 84.6501 49.222L83.9461 47.858C84.6941 47.3447 85.4421 46.9633 86.1901 46.714C86.9381 46.45 87.7154 46.318 88.5221 46.318C89.9888 46.318 91.1474 46.7287 91.9981 47.55C92.8488 48.3567 93.2741 49.486 93.2741 50.938V55.8C93.2741 56.0347 93.3181 56.2107 93.4061 56.328C93.5088 56.4307 93.6701 56.4893 93.8901 56.504V58C93.6994 58.0293 93.5308 58.0513 93.3841 58.066C93.2521 58.0807 93.1421 58.088 93.0541 58.088C92.5994 58.088 92.2548 57.9633 92.0201 57.714C91.8001 57.4647 91.6754 57.2007 91.6461 56.922L91.6021 56.196C91.1034 56.8413 90.4508 57.34 89.6441 57.692C88.8374 58.044 88.0381 58.22 87.2461 58.22C86.4834 58.22 85.8014 58.066 85.2001 57.758C84.5988 57.4353 84.1294 57.01 83.7921 56.482C83.4548 55.9393 83.2861 55.338 83.2861 54.678ZM90.7661 55.492C90.9421 55.2867 91.0814 55.0813 91.1841 54.876C91.2868 54.656 91.3381 54.4727 91.3381 54.326V52.896C90.8834 52.72 90.4068 52.588 89.9081 52.5C89.4094 52.3973 88.9181 52.346 88.4341 52.346C87.4514 52.346 86.6521 52.544 86.0361 52.94C85.4348 53.3213 85.1341 53.8493 85.1341 54.524C85.1341 54.8907 85.2294 55.25 85.4201 55.602C85.6254 55.9393 85.9188 56.218 86.3001 56.438C86.6961 56.658 87.1801 56.768 87.7521 56.768C88.3534 56.768 88.9254 56.6507 89.4681 56.416C90.0108 56.1667 90.4434 55.8587 90.7661 55.492ZM96.8537 41.94H98.7897V55.03C98.7897 55.6607 98.8777 56.0493 99.0537 56.196C99.2297 56.3427 99.4424 56.416 99.6917 56.416C99.9997 56.416 100.293 56.3867 100.572 56.328C100.85 56.2547 101.085 56.1813 101.276 56.108L101.584 57.692C101.261 57.824 100.88 57.934 100.44 58.022C99.9997 58.11 99.6111 58.154 99.2737 58.154C98.5257 58.154 97.9317 57.9413 97.4917 57.516C97.0664 57.0907 96.8537 56.4967 96.8537 55.734V41.94ZM108.627 58.22C107.761 58.22 106.969 58.066 106.251 57.758C105.547 57.4353 104.931 57.0027 104.403 56.46C103.889 55.9027 103.486 55.2647 103.193 54.546C102.914 53.8273 102.775 53.0647 102.775 52.258C102.775 51.1727 103.024 50.1827 103.523 49.288C104.021 48.3933 104.711 47.6747 105.591 47.132C106.485 46.5893 107.505 46.318 108.649 46.318C109.807 46.318 110.812 46.5967 111.663 47.154C112.528 47.6967 113.195 48.4153 113.665 49.31C114.149 50.19 114.391 51.1433 114.391 52.17C114.391 52.3167 114.383 52.4633 114.369 52.61C114.369 52.742 114.361 52.8447 114.347 52.918H104.821C104.879 53.666 105.085 54.3333 105.437 54.92C105.803 55.492 106.273 55.9467 106.845 56.284C107.417 56.6067 108.033 56.768 108.693 56.768C109.397 56.768 110.057 56.592 110.673 56.24C111.303 55.888 111.736 55.426 111.971 54.854L113.643 55.316C113.393 55.8733 113.019 56.372 112.521 56.812C112.037 57.252 111.457 57.5967 110.783 57.846C110.123 58.0953 109.404 58.22 108.627 58.22ZM104.755 51.576H112.587C112.528 50.828 112.315 50.168 111.949 49.596C111.582 49.024 111.113 48.5767 110.541 48.254C109.969 47.9313 109.338 47.77 108.649 47.77C107.974 47.77 107.351 47.9313 106.779 48.254C106.207 48.5767 105.737 49.024 105.371 49.596C105.019 50.168 104.813 50.828 104.755 51.576ZM123.055 48.21C122.087 48.2247 121.229 48.474 120.481 48.958C119.747 49.4273 119.227 50.08 118.919 50.916V58H116.983V46.516H118.787V49.178C119.183 48.386 119.703 47.748 120.349 47.264C121.009 46.7653 121.698 46.4867 122.417 46.428C122.563 46.428 122.688 46.428 122.791 46.428C122.893 46.428 122.981 46.4353 123.055 46.45V48.21Z" fill="black"/>
<path d="M58.85 15.54H64.518L70.394 34H65.246L64.128 30.386H59.214L58.122 34H52.948L58.85 15.54ZM63.322 27.006L61.684 20.506L59.968 27.006H63.322ZM81.3138 34.26C80.3258 34.26 79.4678 34.0693 78.7398 33.688C78.0118 33.2893 77.4485 32.7173 77.0498 31.972V39.538H72.1098V20.324H76.3998V22.378C76.8851 21.6327 77.4831 21.0607 78.1938 20.662C78.9218 20.2633 79.7971 20.064 80.8198 20.064C81.7385 20.064 82.5791 20.2373 83.3418 20.584C84.1045 20.9307 84.7718 21.4247 85.3438 22.066C85.9158 22.7073 86.3578 23.4527 86.6698 24.302C86.9818 25.1513 87.1378 26.0873 87.1378 27.11C87.1378 28.4793 86.8865 29.7013 86.3838 30.776C85.8811 31.8507 85.1878 32.7 84.3038 33.324C83.4371 33.948 82.4405 34.26 81.3138 34.26ZM79.5978 30.1C79.9618 30.1 80.2911 30.022 80.5858 29.866C80.8978 29.71 81.1665 29.4933 81.3918 29.216C81.6171 28.9387 81.7905 28.618 81.9118 28.254C82.0331 27.89 82.0938 27.5 82.0938 27.084C82.0938 26.6507 82.0245 26.2607 81.8858 25.914C81.7645 25.5673 81.5825 25.2727 81.3398 25.03C81.0971 24.77 80.8111 24.5707 80.4818 24.432C80.1525 24.2933 79.7885 24.224 79.3898 24.224C79.1645 24.224 78.9391 24.2587 78.7138 24.328C78.5058 24.38 78.3065 24.4667 78.1158 24.588C77.9251 24.692 77.7345 24.8307 77.5438 25.004C77.3705 25.1773 77.2058 25.3853 77.0498 25.628V27.994C77.2058 28.3927 77.4138 28.7567 77.6738 29.086C77.9511 29.398 78.2545 29.6493 78.5838 29.84C78.9131 30.0133 79.2511 30.1 79.5978 30.1ZM98.6678 34.26C97.6798 34.26 96.8218 34.0693 96.0938 33.688C95.3658 33.2893 94.8024 32.7173 94.4038 31.972V39.538H89.4638V20.324H93.7538V22.378C94.2391 21.6327 94.8371 21.0607 95.5478 20.662C96.2758 20.2633 97.1511 20.064 98.1738 20.064C99.0924 20.064 99.9331 20.2373 100.696 20.584C101.458 20.9307 102.126 21.4247 102.698 22.066C103.27 22.7073 103.712 23.4527 104.024 24.302C104.336 25.1513 104.492 26.0873 104.492 27.11C104.492 28.4793 104.24 29.7013 103.738 30.776C103.235 31.8507 102.542 32.7 101.658 33.324C100.791 33.948 99.7944 34.26 98.6678 34.26ZM96.9518 30.1C97.3158 30.1 97.6451 30.022 97.9398 29.866C98.2518 29.71 98.5204 29.4933 98.7458 29.216C98.9711 28.9387 99.1444 28.618 99.2658 28.254C99.3871 27.89 99.4478 27.5 99.4478 27.084C99.4478 26.6507 99.3784 26.2607 99.2398 25.914C99.1184 25.5673 98.9364 25.2727 98.6938 25.03C98.4511 24.77 98.1651 24.5707 97.8358 24.432C97.5064 24.2933 97.1424 24.224 96.7438 24.224C96.5184 24.224 96.2931 24.2587 96.0678 24.328C95.8598 24.38 95.6604 24.4667 95.4698 24.588C95.2791 24.692 95.0884 24.8307 94.8978 25.004C94.7244 25.1773 94.5598 25.3853 94.4038 25.628V27.994C94.5598 28.3927 94.7678 28.7567 95.0278 29.086C95.3051 29.398 95.6084 29.6493 95.9378 29.84C96.2671 30.0133 96.6051 30.1 96.9518 30.1ZM106.714 15.02H111.654V28.566C111.654 29.0687 111.758 29.4587 111.966 29.736C112.191 29.996 112.512 30.126 112.928 30.126C113.136 30.126 113.361 30.0913 113.604 30.022C113.846 29.9527 114.072 29.8573 114.28 29.736L114.904 33.376C114.314 33.6533 113.647 33.87 112.902 34.026C112.174 34.182 111.48 34.26 110.822 34.26C109.504 34.26 108.49 33.922 107.78 33.246C107.069 32.5527 106.714 31.5733 106.714 30.308V15.02ZM123.314 34.26C122.118 34.26 121.052 34.078 120.116 33.714C119.18 33.3327 118.391 32.8213 117.75 32.18C117.126 31.5387 116.649 30.802 116.32 29.97C115.991 29.138 115.826 28.2627 115.826 27.344C115.826 26.0267 116.112 24.822 116.684 23.73C117.256 22.6207 118.097 21.7367 119.206 21.078C120.315 20.402 121.685 20.064 123.314 20.064C124.943 20.064 126.313 20.3933 127.422 21.052C128.531 21.7107 129.372 22.5773 129.944 23.652C130.516 24.7267 130.802 25.8967 130.802 27.162C130.802 27.422 130.785 27.6907 130.75 27.968C130.733 28.228 130.707 28.462 130.672 28.67H121.078C121.113 29.1553 121.243 29.554 121.468 29.866C121.711 30.1607 122.005 30.3773 122.352 30.516C122.716 30.6547 123.089 30.724 123.47 30.724C124.007 30.724 124.51 30.6027 124.978 30.36C125.463 30.1173 125.784 29.7793 125.94 29.346L130.126 30.542C129.762 31.27 129.251 31.9113 128.592 32.466C127.951 33.0207 127.188 33.4627 126.304 33.792C125.42 34.104 124.423 34.26 123.314 34.26ZM120.974 25.706H125.498C125.446 25.2553 125.316 24.874 125.108 24.562C124.917 24.25 124.657 24.0073 124.328 23.834C124.016 23.6607 123.652 23.574 123.236 23.574C122.82 23.574 122.447 23.6607 122.118 23.834C121.806 24.0073 121.546 24.25 121.338 24.562C121.147 24.874 121.026 25.2553 120.974 25.706Z" fill="#FF5C00"/>
</g>
<defs>
<clipPath id="clip0_12_47">
<rect width="140" height="70" fill="white"/>
</clipPath>
</defs>
</svg>
