<svg width="70" height="70" viewBox="0 0 70 70" fill="none" xmlns="http://www.w3.org/2000/svg">
<path d="M34.9999 18.6037C40.3401 18.6037 40.9726 18.6241 43.0817 18.7203C45.0317 18.8093 46.0906 19.135 46.7954 19.4089C47.6641 19.7295 48.4499 20.2408 49.095 20.905C49.7593 21.5502 50.2705 22.336 50.5911 23.2047C50.865 23.9094 51.1908 24.9684 51.2797 26.9184C51.3759 29.0274 51.3964 29.6599 51.3964 35.0003C51.3964 40.3407 51.3759 40.973 51.2797 43.0822C51.1907 45.0322 50.8649 46.0911 50.5911 46.7959C50.2584 47.6585 49.7488 48.4418 49.095 49.0955C48.4413 49.7493 47.658 50.2589 46.7954 50.5916C46.0907 50.8655 45.0317 51.1913 43.0817 51.2803C40.9731 51.3765 40.3407 51.3969 34.9999 51.3969C29.6591 51.3969 29.0269 51.3765 26.918 51.2803C24.9681 51.1913 23.9092 50.8654 23.2043 50.5916C22.3357 50.271 21.5499 49.7598 20.9048 49.0955C20.2405 48.4504 19.7293 47.6646 19.4087 46.7959C19.1348 46.0912 18.8089 45.0322 18.72 43.0822C18.6238 40.9733 18.6034 40.3407 18.6034 35.0003C18.6034 29.6599 18.6238 29.0275 18.72 26.9184C18.809 24.9684 19.1348 23.9095 19.4087 23.2047C19.7293 22.3359 20.2406 21.5501 20.9049 20.905C21.55 20.2407 22.3358 19.7295 23.2045 19.4089C23.9092 19.135 24.9682 18.8091 26.9182 18.7202C29.0272 18.624 29.6597 18.6036 35 18.6036L34.9999 18.6037ZM35 15C29.5684 15 28.887 15.023 26.7542 15.1204C24.6253 15.2175 23.1716 15.5556 21.8994 16.05C20.5649 16.5522 19.356 17.3395 18.3571 18.3569C17.3394 19.3558 16.552 20.5647 16.0496 21.8992C15.5556 23.1715 15.2175 24.6253 15.1208 26.7541C15.023 28.887 15 29.5683 15 35C15 40.4318 15.023 41.1131 15.1208 43.246C15.2179 45.3748 15.556 46.8286 16.0504 48.1008C16.5526 49.4353 17.3398 50.6442 18.3572 51.6431C19.3562 52.6606 20.5651 53.4478 21.8996 53.95C23.1718 54.4444 24.6256 54.7825 26.7543 54.8796C28.8875 54.977 29.5686 55 35.0002 55C40.4318 55 41.1132 54.977 43.2461 54.8796C45.3749 54.7825 46.8287 54.4444 48.1008 53.95C49.4294 53.4361 50.6359 52.6504 51.6432 51.6432C52.6504 50.6359 53.4362 49.4293 53.95 48.1008C54.4444 46.8285 54.7825 45.3747 54.8796 43.246C54.977 41.1128 55 40.4317 55 35C55 29.5684 54.977 28.887 54.8796 26.7541C54.7825 24.6253 54.4444 23.1715 53.95 21.8993C53.4478 20.5648 52.6606 19.3559 51.6432 18.3569C50.6442 17.3393 49.4352 16.5519 48.1006 16.0496C46.8284 15.5556 45.3746 15.2175 43.2458 15.1208C41.1129 15.023 40.4316 15 34.9999 15H35Z" fill="#FF7E36"/>
<path d="M34.9997 24.7298C32.9685 24.7298 30.9828 25.3321 29.2939 26.4606C27.605 27.5891 26.2886 29.1931 25.5113 31.0698C24.7339 32.9464 24.5306 35.0115 24.9268 37.0037C25.3231 38.9959 26.3013 40.8259 27.7376 42.2623C29.1739 43.6986 31.0039 44.6767 32.9961 45.073C34.9883 45.4693 37.0533 45.2659 38.93 44.4886C40.8066 43.7113 42.4106 42.3949 43.5391 40.7059C44.6676 39.017 45.2699 37.0313 45.2699 35.0001C45.2699 32.2762 44.1879 29.6639 42.2619 27.7379C40.3358 25.8118 37.7235 24.7298 34.9997 24.7298V24.7298ZM34.9997 41.6667C33.6812 41.6667 32.3923 41.2757 31.296 40.5431C30.1997 39.8106 29.3452 38.7694 28.8407 37.5512C28.3361 36.3331 28.2041 34.9926 28.4613 33.6994C28.7186 32.4062 29.3535 31.2184 30.2858 30.286C31.2182 29.3537 32.4061 28.7188 33.6992 28.4615C34.9924 28.2043 36.3329 28.3363 37.551 28.8409C38.7692 29.3455 39.8103 30.2 40.5429 31.2963C41.2754 32.3926 41.6664 33.6815 41.6664 35.0001C41.6663 36.7682 40.964 38.4639 39.7137 39.7141C38.4635 40.9643 36.7678 41.6667 34.9997 41.6667Z" fill="#FF7E36"/>
<path d="M45.6758 26.7239C47.0013 26.7239 48.0758 25.6494 48.0758 24.324C48.0758 22.9985 47.0013 21.924 45.6758 21.924C44.3504 21.924 43.2759 22.9985 43.2759 24.324C43.2759 25.6494 44.3504 26.7239 45.6758 26.7239Z" fill="#FF7E36"/>
</svg>
