<svg width="70" height="70" viewBox="0 0 70 70" fill="none" xmlns="http://www.w3.org/2000/svg">
<path d="M35 55C46.0457 55 55 46.0457 55 35C55 23.9543 46.0457 15 35 15C23.9543 15 15 23.9543 15 35C15 46.0457 23.9543 55 35 55Z" fill="#FF7E36"/>
<path d="M23.3237 34.8266L36.7919 29.2775C38.1214 28.6995 42.63 26.8497 42.63 26.8497C42.63 26.8497 44.711 26.0405 44.5375 28.0058C44.4797 28.8151 44.0173 31.6474 43.5549 34.711L42.1098 43.7862C42.1098 43.7862 41.9942 45.1156 41.0115 45.3469C40.0289 45.5781 38.4104 44.5376 38.1214 44.3064C37.8902 44.133 33.7861 41.5318 32.2832 40.2602C31.8786 39.9133 31.4162 39.2197 32.341 38.4104C34.4219 36.5029 36.9075 34.133 38.4104 32.6301C39.104 31.9365 39.7977 30.318 36.9075 32.2833L28.7572 37.7746C28.7572 37.7746 27.8324 38.3526 26.0982 37.8324C24.3641 37.3122 22.341 36.6185 22.341 36.6185C22.341 36.6185 20.9537 35.7515 23.3237 34.8266V34.8266Z" fill="white"/>
</svg>
